<?xml version="1.0" encoding="UTF-8" standalone="no"?>
<svg
   xmlns:dc="http://purl.org/dc/elements/1.1/"
   xmlns:cc="http://creativecommons.org/ns#"
   xmlns:rdf="http://www.w3.org/1999/02/22-rdf-syntax-ns#"
   xmlns:svg="http://www.w3.org/2000/svg"
   xmlns="http://www.w3.org/2000/svg"
   xmlns:sodipodi="http://sodipodi.sourceforge.net/DTD/sodipodi-0.dtd"
   xmlns:inkscape="http://www.inkscape.org/namespaces/inkscape"
   version="1.0"
   width="290.34329pt"
   height="92.669304pt"
   viewBox="0 0 387.12439 92.669304"
   preserveAspectRatio="xMidYMid meet"
   id="svg102"
   sodipodi:docname="morepuzzles_tilted4.svg"
   inkscape:version="0.92.4 (5da689c313, 2019-01-14)">
  <g
     transform="translate(0.74918312,-0.73941607)"
     id="g921" />
  <metadata
     id="metadata108">
    <rdf:RDF>
      <cc:Work
         rdf:about="">
        <dc:format>image/svg+xml</dc:format>
        <dc:type
           rdf:resource="http://purl.org/dc/dcmitype/StillImage" />
        <dc:title></dc:title>
      </cc:Work>
    </rdf:RDF>
  </metadata>
  <defs
     id="defs106">
    <filter
       inkscape:collect="always"
       style="color-interpolation-filters:sRGB"
       id="filter1547"
       x="-0.02066889"
       width="1.0413378"
       y="-0.13939878"
       height="1.2787976">
      <feGaussianBlur
         inkscape:collect="always"
         stdDeviation="1.8075375"
         id="feGaussianBlur1549" />
    </filter>
  </defs>
  <sodipodi:namedview
     fit-margin-bottom="0"
     fit-margin-right="0"
     fit-margin-left="0"
     fit-margin-top="0"
     height="100pt"
     pagecolor="#ffffff"
     bordercolor="#666666"
     inkscape:document-rotation="0"
     borderopacity="1"
     objecttolerance="10"
     gridtolerance="10"
     guidetolerance="10"
     inkscape:pageopacity="0"
     inkscape:pageshadow="2"
     inkscape:window-width="1920"
     inkscape:window-height="1027"
     id="namedview104"
     showgrid="false"
     inkscape:zoom="4.0014918"
     inkscape:cx="106.32395"
     inkscape:cy="74.26712"
     inkscape:window-x="-8"
     inkscape:window-y="-8"
     inkscape:window-maximized="1"
     inkscape:current-layer="svg102"
     inkscape:snap-text-baseline="false" />
  <rect
     style="fill:#2e4857;fill-rule:evenodd;stroke-width:0.68915778;opacity:1"
     id="rect110"
     width="386.46674"
     height="79.381332"
     x="-0.033084769"
     y="4.6500344"
     transform="matrix(0.97666472,-0.05171874,0.00407999,0.93963154,5.5729268,12.539764)" />
  <g
     id="g1577"
     transform="matrix(1.7214552,-0.11058639,0,1.763643,-620.2621,3.8101531)"
     style="opacity:1;stroke:#000000;stroke-width:0.06806232;stroke-miterlimit:4;stroke-dasharray:none;stroke-opacity:1">
    <g
       transform="translate(5.3058093,0.53058093)"
       style="font-style:normal;font-weight:normal;font-size:40px;line-height:1.25;font-family:sans-serif;opacity:0.71061096;fill:#000000;fill-opacity:1;stroke:#000000;stroke-width:0.06806232;stroke-miterlimit:4;stroke-dasharray:none;stroke-opacity:1;filter:url(#filter1547)"
       id="text933"
       aria-label="MORE PUZZLES!">
      <path
         inkscape:connector-curvature="0"
         id="path935"
         style="font-style:normal;font-variant:normal;font-weight:normal;font-stretch:normal;font-family:Bangers;-inkscape-font-specification:Bangers;stroke:#000000;stroke-width:0.06806232;stroke-miterlimit:4;stroke-dasharray:none;stroke-opacity:1"
         d="m 364.90086,69.203405 q 1.76,-5.32 3.36,-10.44 0.68,-2.16 1.4,-4.52 0.72,-2.36 1.44,-4.68 0.72,-2.32 1.32,-4.48 0.64,-2.16 1.12,-4 2.2,0 4.16,-0.24 1.96,-0.24 4.24,-0.44 -0.12,0.88 -0.28,2 -0.12,1.08 -0.32,2.28 -0.16,1.2 -0.36,2.48 -0.2,1.28 -0.48,3.28 -0.28,2 -0.76,5 h 0.52 q 1.16,-3.04 1.92,-5.04 0.76,-2.04 1.24,-3.32 0.48,-1.28 0.96,-2.48 0.52,-1.24 0.96,-2.32 0.48,-1.12 0.88,-1.96 1,-0.08 1.88,-0.2 0.88,-0.12 1.76,-0.24 0.88,-0.16 1.76,-0.28 0.92,-0.16 2,-0.36 -0.4,2.32 -0.76,4.76 -0.36,2.44 -0.64,4.88 -0.28,2.4 -0.56,4.76 -0.24,2.36 -0.44,4.48 -0.48,4.96 -0.84,9.68 l -6.96,1.24 q 0,-0.2 0.04,-1.08 0.08,-0.88 0.16,-2.16 0.12,-1.28 0.28,-2.84 0.2,-1.56 0.36,-3.12 0.2,-1.56 0.4,-3 0.2,-1.48 0.4,-2.52 h -0.36 q -0.56,1.68 -1.24,3.56 -0.68,1.84 -1.4,3.76 -0.68,1.92 -1.36,3.76 -0.68,1.84 -1.2,3.52 -1.4,0.04 -2.4,0.12 -1,0.04 -2.32,0.12 l 1.28,-14.84 h -0.6 q -0.08,0.52 -0.4,1.76 -0.32,1.2 -0.76,2.8 -0.4,1.56 -0.88,3.28 -0.48,1.68 -0.92,3.16 -0.4,1.44 -0.68,2.4 -0.28,0.92 -0.32,1.04 z" />
      <path
         inkscape:connector-curvature="0"
         id="path937"
         style="font-style:normal;font-variant:normal;font-weight:normal;font-stretch:normal;font-family:Bangers;-inkscape-font-specification:Bangers;stroke:#000000;stroke-width:0.06806232;stroke-miterlimit:4;stroke-dasharray:none;stroke-opacity:1"
         d="m 413.26649,47.803405 q 0,3.28 -0.72,6.2 -0.68,2.88 -1.84,5.32 -1.16,2.4 -2.72,4.32 -1.52,1.88 -3.2,3.24 -1.68,1.32 -3.4,2.04 -1.72,0.68 -3.28,0.68 -1.32,0 -2.4,-0.48 -1.08,-0.52 -1.88,-1.48 -0.8,-1 -1.28,-2.52 -0.44,-1.56 -0.44,-3.72 0,-2.24 0.56,-4.72 0.56,-2.48 1.52,-4.92 0.96,-2.44 2.36,-4.64 1.4,-2.2 3.08,-3.88 1.68,-1.72 3.6,-2.72 1.92,-1 4,-1 1.8,0 2.96,0.76 1.2,0.72 1.84,1.92 0.68,1.16 0.96,2.64 0.28,1.48 0.28,2.96 z m -15.2,12.56 q 0,0.44 0.16,0.92 0.16,0.48 0.44,0.84 0.28,0.36 0.68,0.64 0.44,0.24 0.92,0.24 1.8,0 3.2,-1.24 1.4,-1.24 2.32,-3.04 0.92,-1.8 1.4,-3.84 0.52,-2.04 0.52,-3.72 0,-0.48 -0.08,-1.04 -0.04,-0.56 -0.24,-1.04 -0.16,-0.48 -0.56,-0.8 -0.36,-0.36 -1,-0.36 -1.28,0 -2.36,0.64 -1.08,0.64 -1.96,1.72 -0.84,1.04 -1.48,2.4 -0.64,1.32 -1.12,2.72 -0.44,1.36 -0.64,2.68 -0.2,1.32 -0.2,2.28 z" />
      <path
         inkscape:connector-curvature="0"
         id="path939"
         style="font-style:normal;font-variant:normal;font-weight:normal;font-stretch:normal;font-family:Bangers;-inkscape-font-specification:Bangers;stroke:#000000;stroke-width:0.06806232;stroke-miterlimit:4;stroke-dasharray:none;stroke-opacity:1"
         d="m 410.71399,69.483405 q 1.08,-5.32 2.08,-10.4 0.36,-2.16 0.8,-4.48 0.44,-2.36 0.8,-4.64 0.4,-2.32 0.72,-4.44 0.36,-2.16 0.56,-3.92 2.28,-0.72 4.92,-1.04 2.64,-0.36 5.24,-0.36 1.56,0 2.56,0.36 1.04,0.36 1.6,1.04 0.6,0.64 0.84,1.52 0.24,0.88 0.24,1.96 0,1.6 -0.56,3.16 -0.56,1.52 -1.52,2.92 -0.92,1.36 -2.16,2.52 -1.2,1.12 -2.6,1.84 0.72,1.6 1.52,3.52 0.84,1.88 1.56,3.6 0.8,2 1.64,4 l -6.2,2.16 q -0.8,-2.76 -1.44,-5.2 -0.28,-1 -0.56,-2.04 -0.28,-1.08 -0.52,-2 -0.24,-0.96 -0.4,-1.68 -0.16,-0.72 -0.2,-1.12 l -0.52,0.16 q -0.24,1.28 -0.6,3.12 -0.32,1.84 -0.6,3.56 -0.36,2.04 -0.72,4.2 z m 9.4,-17.36 q 0.76,-0.08 1.84,-0.64 1.12,-0.56 2.12,-1.32 1,-0.8 1.72,-1.64 0.72,-0.84 0.72,-1.48 0,-0.44 -0.28,-0.68 -0.28,-0.28 -0.8,-0.4 -0.48,-0.16 -1.08,-0.2 -0.6,-0.04 -1.24,-0.04 -0.44,0 -0.92,0.04 -0.44,0 -0.8,0 z" />
      <path
         inkscape:connector-curvature="0"
         id="path941"
         style="font-style:normal;font-variant:normal;font-weight:normal;font-stretch:normal;font-family:Bangers;-inkscape-font-specification:Bangers;stroke:#000000;stroke-width:0.06806232;stroke-miterlimit:4;stroke-dasharray:none;stroke-opacity:1"
         d="m 428.60836,69.483405 5.24,-28.44 12.64,-1.08 q -0.28,0.88 -0.48,1.8 -0.2,0.76 -0.4,1.6 -0.16,0.8 -0.28,1.44 -0.4,0.04 -1.16,0.08 -0.72,0 -1.56,0.04 -0.84,0 -1.72,0 -0.84,0 -1.48,0 l -1.4,7.16 q 1.24,-0.08 2.32,-0.12 0.88,-0.04 1.8,-0.04 0.92,0 1.36,-0.04 -0.16,1.12 -0.32,2.2 -0.12,1.08 -0.32,2.2 -0.4,0.04 -1.32,0.08 -0.88,0 -1.8,0.04 -1.04,0.04 -2.28,0.08 l -1.36,7.36 5.84,-0.92 -0.4,4.56 z" />
      <path
         inkscape:connector-curvature="0"
         id="path943"
         style="font-style:normal;font-variant:normal;font-weight:normal;font-stretch:normal;font-family:Bangers;-inkscape-font-specification:Bangers;stroke:#000000;stroke-width:0.06806232;stroke-miterlimit:4;stroke-dasharray:none;stroke-opacity:1"
         d="m 449.65274,69.483405 q 1.2,-5.4 2.28,-10.56 0.44,-2.16 0.92,-4.56 0.48,-2.4 0.92,-4.72 0.44,-2.32 0.84,-4.48 0.4,-2.16 0.68,-3.96 1.16,-0.36 2.28,-0.6 1.12,-0.28 2.28,-0.48 1.2,-0.2 2.24,-0.2 1.8,0 3,0.6 1.24,0.6 2,1.64 0.76,1 1.08,2.36 0.32,1.36 0.32,2.92 0,2.24 -0.84,4.32 -0.8,2.08 -2.2,3.72 -1.36,1.6 -3.16,2.56 -1.76,0.96 -3.68,0.96 h -0.44 q -0.32,1.36 -0.6,2.96 -0.28,1.6 -0.48,2.96 -0.28,1.6 -0.52,3.2 z m 11.16,-24.72 q -0.44,2.64 -0.88,5 -0.44,2.36 -0.96,5.04 0.64,-0.16 1.32,-0.72 0.72,-0.6 1.32,-1.52 0.6,-0.96 0.96,-2.2 0.36,-1.24 0.36,-2.6 0,-1.48 -0.68,-2.24 -0.64,-0.76 -1.44,-0.76 z" />
      <path
         inkscape:connector-curvature="0"
         id="path945"
         style="font-style:normal;font-variant:normal;font-weight:normal;font-stretch:normal;font-family:Bangers;-inkscape-font-specification:Bangers;stroke:#000000;stroke-width:0.06806232;stroke-miterlimit:4;stroke-dasharray:none;stroke-opacity:1"
         d="m 481.56899,61.643405 q -0.56,2.28 -1.6,3.88 -1,1.6 -2.4,2.64 -1.36,1.04 -2.92,1.52 -1.56,0.48 -3.12,0.48 -0.92,0 -1.88,-0.32 -0.96,-0.28 -1.72,-0.88 -0.76,-0.6 -1.28,-1.52 -0.48,-0.92 -0.48,-2.16 0,-0.16 0,-0.32 0,-0.16 0.04,-0.32 0.16,-1.64 0.52,-3.96 0.36,-2.32 0.76,-4.84 0.4,-2.52 0.88,-5.04 0.48,-2.56 0.84,-4.64 0.4,-2.08 0.68,-3.44 0.28,-1.4 0.36,-1.72 0.84,-0.08 2,-0.2 1.16,-0.12 2.16,-0.2 1.24,-0.12 2.44,-0.24 -1.04,4.84 -1.84,8.76 -0.36,1.68 -0.72,3.36 -0.32,1.68 -0.64,3.08 -0.28,1.4 -0.52,2.44 -0.2,1 -0.36,1.64 -0.12,0.64 -0.32,1.64 -0.16,0.96 -0.16,1.76 0,0.64 0.32,1.08 0.32,0.4 0.8,0.4 0.68,0 1.12,-0.52 0.44,-0.56 0.72,-1.32 0.32,-0.76 0.44,-1.52 0.16,-0.8 0.28,-1.24 0.24,-1.16 0.52,-2.56 0.32,-1.44 0.6,-2.96 0.32,-1.56 0.6,-3.16 0.32,-1.6 0.6,-3.12 0.68,-3.52 1.32,-7.28 l 6.08,-0.4 q 0,0 -0.2,1.04 -0.2,1.04 -0.52,2.76 -0.32,1.72 -0.72,3.92 -0.36,2.2 -0.84,4.6 -0.48,2.36 -0.96,4.68 -0.44,2.28 -0.88,4.2 z" />
      <path
         inkscape:connector-curvature="0"
         id="path947"
         style="font-style:normal;font-variant:normal;font-weight:normal;font-stretch:normal;font-family:Bangers;-inkscape-font-specification:Bangers;stroke:#000000;stroke-width:0.06806232;stroke-miterlimit:4;stroke-dasharray:none;stroke-opacity:1"
         d="m 498.96586,67.843405 q -0.36,0 -1.52,0.04 -1.16,0.04 -2.76,0.12 -1.56,0.08 -3.4,0.2 -1.84,0.12 -3.6,0.28 -1.76,0.12 -3.28,0.28 -1.48,0.16 -2.36,0.32 l 0.04,-5.84 11.36,-15.48 q -0.68,0 -1.92,0.16 -1.24,0.12 -2.52,0.28 -1.24,0.16 -2.16,0.32 l -0.96,0.08 0.76,-6.28 16.36,-1.16 -1.04,5.52 -10.92,15.52 q 0.8,0 2.12,-0.08 1.36,-0.08 2.8,-0.16 1.44,-0.08 3.12,-0.2 z" />
      <path
         inkscape:connector-curvature="0"
         id="path949"
         style="font-style:normal;font-variant:normal;font-weight:normal;font-stretch:normal;font-family:Bangers;-inkscape-font-specification:Bangers;stroke:#000000;stroke-width:0.06806232;stroke-miterlimit:4;stroke-dasharray:none;stroke-opacity:1"
         d="m 516.23149,67.843405 q -0.36,0 -1.52,0.04 -1.16,0.04 -2.76,0.12 -1.56,0.08 -3.4,0.2 -1.84,0.12 -3.6,0.28 -1.76,0.12 -3.28,0.28 -1.48,0.16 -2.36,0.32 l 0.04,-5.84 11.36,-15.48 q -0.68,0 -1.92,0.16 -1.24,0.12 -2.52,0.28 -1.24,0.16 -2.16,0.32 l -0.96,0.08 0.76,-6.28 16.36,-1.16 -1.04,5.52 -10.92,15.52 q 0.8,0 2.12,-0.08 1.36,-0.08 2.8,-0.16 1.44,-0.08 3.12,-0.2 z" />
      <path
         inkscape:connector-curvature="0"
         id="path951"
         style="font-style:normal;font-variant:normal;font-weight:normal;font-stretch:normal;font-family:Bangers;-inkscape-font-specification:Bangers;stroke:#000000;stroke-width:0.06806232;stroke-miterlimit:4;stroke-dasharray:none;stroke-opacity:1"
         d="m 527.29711,68.163405 q -1.24,0 -2.64,0.08 -1.36,0.08 -2.76,0.24 -1.4,0.16 -2.76,0.44 -1.32,0.24 -2.4,0.6 0.24,-1.8 0.56,-4 0.32,-2.2 0.72,-4.56 0.44,-2.36 0.84,-4.76 0.44,-2.4 0.88,-4.6 1,-5.24 2.12,-10.68 l 7,-0.92 q -1.08,4.64 -2.08,9.04 -0.44,1.88 -0.88,3.92 -0.44,2 -0.84,3.92 -0.4,1.92 -0.72,3.72 -0.32,1.8 -0.52,3.2 1,-0.08 2.12,-0.08 1.16,-0.04 2.04,-0.04 0.04,0.76 0.12,1.52 0.08,0.72 0.16,1.32 0.12,0.6 0.16,1.08 0.08,0.44 0.12,0.6 -0.32,0 -0.64,0 -0.28,-0.04 -0.6,-0.04 z" />
      <path
         inkscape:connector-curvature="0"
         id="path953"
         style="font-style:normal;font-variant:normal;font-weight:normal;font-stretch:normal;font-family:Bangers;-inkscape-font-specification:Bangers;stroke:#000000;stroke-width:0.06806232;stroke-miterlimit:4;stroke-dasharray:none;stroke-opacity:1"
         d="m 528.68649,69.483405 5.24,-28.44 12.64,-1.08 q -0.28,0.88 -0.48,1.8 -0.2,0.76 -0.4,1.6 -0.16,0.8 -0.28,1.44 -0.4,0.04 -1.16,0.08 -0.72,0 -1.56,0.04 -0.84,0 -1.72,0 -0.84,0 -1.48,0 l -1.4,7.16 q 1.24,-0.08 2.32,-0.12 0.88,-0.04 1.8,-0.04 0.92,0 1.36,-0.04 -0.16,1.12 -0.32,2.2 -0.12,1.08 -0.32,2.2 -0.4,0.04 -1.32,0.08 -0.88,0 -1.8,0.04 -1.04,0.04 -2.28,0.08 l -1.36,7.36 5.84,-0.92 -0.4,4.56 z" />
      <path
         inkscape:connector-curvature="0"
         id="path955"
         style="font-style:normal;font-variant:normal;font-weight:normal;font-stretch:normal;font-family:Bangers;-inkscape-font-specification:Bangers;stroke:#000000;stroke-width:0.06806232;stroke-miterlimit:4;stroke-dasharray:none;stroke-opacity:1"
         d="m 559.75836,59.563405 q 0,2.24 -0.88,4.08 -0.84,1.8 -2.32,3.12 -1.44,1.32 -3.44,2.04 -1.96,0.72 -4.24,0.72 -1.6,0 -3.2,-0.84 -1.6,-0.88 -3.08,-2.76 l 2.96,-5.8 q 0.28,0.52 0.84,1.08 0.56,0.52 1.24,0.92 0.72,0.4 1.4,0.68 0.72,0.24 1.28,0.24 0.48,0 1,-0.16 0.52,-0.16 0.96,-0.48 0.44,-0.32 0.68,-0.72 0.28,-0.44 0.28,-1 0,-0.96 -0.64,-1.76 -0.6,-0.84 -1.52,-1.56 -0.92,-0.76 -2,-1.52 -1.08,-0.76 -2,-1.6 -0.88,-0.84 -1.52,-1.88 -0.64,-1.04 -0.64,-2.32 0,-2.08 1.24,-3.88 1.24,-1.8 3.08,-3.08 1.88,-1.32 4.08,-2.08 2.2,-0.76 4.16,-0.76 1.08,0 2.04,0.28 0.96,0.24 1.64,0.84 0.72,0.56 1.12,1.44 0.44,0.88 0.44,2.2 0,0.56 -0.12,1.12 -0.08,0.56 -0.16,1.2 l -5.8,1.68 q 0.08,-0.32 0.12,-0.64 0.08,-0.32 0.08,-0.64 0,-1.2 -0.44,-1.72 -0.4,-0.56 -1.08,-0.56 -0.32,0 -0.8,0.24 -0.44,0.24 -0.92,0.64 -0.44,0.36 -0.76,0.88 -0.32,0.52 -0.32,1.12 0,0.96 0.52,1.6 0.56,0.64 1.36,1.2 0.8,0.56 1.72,1.16 0.96,0.56 1.76,1.48 0.8,0.92 1.32,2.32 0.56,1.36 0.56,3.48 z" />
      <path
         inkscape:connector-curvature="0"
         id="path957"
         style="font-style:normal;font-variant:normal;font-weight:normal;font-stretch:normal;font-family:Bangers;-inkscape-font-specification:Bangers;stroke:#000000;stroke-width:0.06806232;stroke-miterlimit:4;stroke-dasharray:none;stroke-opacity:1"
         d="m 567.30586,59.963405 q -1.16,0 -2.32,0.08 -1.16,0.08 -2.32,0.16 1.24,-4.92 2.4,-9.8 1.2,-4.88 2.48,-9.8 0.76,-0.12 1.72,-0.24 1,-0.12 2,-0.28 1,-0.16 1.92,-0.28 0.96,-0.12 1.6,-0.24 -2.16,5.04 -3.96,10.16 -1.76,5.08 -3.52,10.24 z m 0.4,6.28 q 0,0.76 -0.36,1.52 -0.32,0.76 -0.96,1.36 -0.64,0.56 -1.6,0.88 -0.96,0.36 -2.2,0.36 -0.84,0 -1.52,-0.32 -0.68,-0.32 -1.12,-0.84 -0.4,-0.56 -0.64,-1.24 -0.24,-0.68 -0.24,-1.36 0,-0.76 0.24,-1.44 0.24,-0.72 0.72,-1.24 0.52,-0.56 1.24,-0.92 0.76,-0.36 1.8,-0.36 2.32,0 3.48,1.12 1.16,1.08 1.16,2.48 z" />
    </g>
    <g
       aria-label="MORE PUZZLES!"
       id="g984"
       style="font-style:normal;font-weight:normal;font-size:40px;line-height:1.25;font-family:sans-serif;fill:#ffffff;fill-opacity:1;stroke:#000000;stroke-width:0.06806232;stroke-miterlimit:4;stroke-dasharray:none;stroke-opacity:1"
       transform="translate(2.6529046,-3.1834856)">
      <path
         d="m 364.90086,69.203405 q 1.76,-5.32 3.36,-10.44 0.68,-2.16 1.4,-4.52 0.72,-2.36 1.44,-4.68 0.72,-2.32 1.32,-4.48 0.64,-2.16 1.12,-4 2.2,0 4.16,-0.24 1.96,-0.24 4.24,-0.44 -0.12,0.88 -0.28,2 -0.12,1.08 -0.32,2.28 -0.16,1.2 -0.36,2.48 -0.2,1.28 -0.48,3.28 -0.28,2 -0.76,5 h 0.52 q 1.16,-3.04 1.92,-5.04 0.76,-2.04 1.24,-3.32 0.48,-1.28 0.96,-2.48 0.52,-1.24 0.96,-2.32 0.48,-1.12 0.88,-1.96 1,-0.08 1.88,-0.2 0.88,-0.12 1.76,-0.24 0.88,-0.16 1.76,-0.28 0.92,-0.16 2,-0.36 -0.4,2.32 -0.76,4.76 -0.36,2.44 -0.64,4.88 -0.28,2.4 -0.56,4.76 -0.24,2.36 -0.44,4.48 -0.48,4.96 -0.84,9.68 l -6.96,1.24 q 0,-0.2 0.04,-1.08 0.08,-0.88 0.16,-2.16 0.12,-1.28 0.28,-2.84 0.2,-1.56 0.36,-3.12 0.2,-1.56 0.4,-3 0.2,-1.48 0.4,-2.52 h -0.36 q -0.56,1.68 -1.24,3.56 -0.68,1.84 -1.4,3.76 -0.68,1.92 -1.36,3.76 -0.68,1.84 -1.2,3.52 -1.4,0.04 -2.4,0.12 -1,0.04 -2.32,0.12 l 1.28,-14.84 h -0.6 q -0.08,0.52 -0.4,1.76 -0.32,1.2 -0.76,2.8 -0.4,1.56 -0.88,3.28 -0.48,1.68 -0.92,3.16 -0.4,1.44 -0.68,2.4 -0.28,0.92 -0.32,1.04 z"
         style="font-style:normal;font-variant:normal;font-weight:normal;font-stretch:normal;font-family:Bangers;-inkscape-font-specification:Bangers;fill:#ffffff;fill-opacity:1;stroke:#000000;stroke-width:0.06806232;stroke-miterlimit:4;stroke-dasharray:none;stroke-opacity:1"
         id="path960"
         inkscape:connector-curvature="0" />
      <path
         d="m 413.26649,47.803405 q 0,3.28 -0.72,6.2 -0.68,2.88 -1.84,5.32 -1.16,2.4 -2.72,4.32 -1.52,1.88 -3.2,3.24 -1.68,1.32 -3.4,2.04 -1.72,0.68 -3.28,0.68 -1.32,0 -2.4,-0.48 -1.08,-0.52 -1.88,-1.48 -0.8,-1 -1.28,-2.52 -0.44,-1.56 -0.44,-3.72 0,-2.24 0.56,-4.72 0.56,-2.48 1.52,-4.92 0.96,-2.44 2.36,-4.64 1.4,-2.2 3.08,-3.88 1.68,-1.72 3.6,-2.72 1.92,-1 4,-1 1.8,0 2.96,0.76 1.2,0.72 1.84,1.92 0.68,1.16 0.96,2.64 0.28,1.48 0.28,2.96 z m -15.2,12.56 q 0,0.44 0.16,0.92 0.16,0.48 0.44,0.84 0.28,0.36 0.68,0.64 0.44,0.24 0.92,0.24 1.8,0 3.2,-1.24 1.4,-1.24 2.32,-3.04 0.92,-1.8 1.4,-3.84 0.52,-2.04 0.52,-3.72 0,-0.48 -0.08,-1.04 -0.04,-0.56 -0.24,-1.04 -0.16,-0.48 -0.56,-0.8 -0.36,-0.36 -1,-0.36 -1.28,0 -2.36,0.64 -1.08,0.64 -1.96,1.72 -0.84,1.04 -1.48,2.4 -0.64,1.32 -1.12,2.72 -0.44,1.36 -0.64,2.68 -0.2,1.32 -0.2,2.28 z"
         style="font-style:normal;font-variant:normal;font-weight:normal;font-stretch:normal;font-family:Bangers;-inkscape-font-specification:Bangers;fill:#ffffff;fill-opacity:1;stroke:#000000;stroke-width:0.06806232;stroke-miterlimit:4;stroke-dasharray:none;stroke-opacity:1"
         id="path962"
         inkscape:connector-curvature="0" />
      <path
         d="m 410.71399,69.483405 q 1.08,-5.32 2.08,-10.4 0.36,-2.16 0.8,-4.48 0.44,-2.36 0.8,-4.64 0.4,-2.32 0.72,-4.44 0.36,-2.16 0.56,-3.92 2.28,-0.72 4.92,-1.04 2.64,-0.36 5.24,-0.36 1.56,0 2.56,0.36 1.04,0.36 1.6,1.04 0.6,0.64 0.84,1.52 0.24,0.88 0.24,1.96 0,1.6 -0.56,3.16 -0.56,1.52 -1.52,2.92 -0.92,1.36 -2.16,2.52 -1.2,1.12 -2.6,1.84 0.72,1.6 1.52,3.52 0.84,1.88 1.56,3.6 0.8,2 1.64,4 l -6.2,2.16 q -0.8,-2.76 -1.44,-5.2 -0.28,-1 -0.56,-2.04 -0.28,-1.08 -0.52,-2 -0.24,-0.96 -0.4,-1.68 -0.16,-0.72 -0.2,-1.12 l -0.52,0.16 q -0.24,1.28 -0.6,3.12 -0.32,1.84 -0.6,3.56 -0.36,2.04 -0.72,4.2 z m 9.4,-17.36 q 0.76,-0.08 1.84,-0.64 1.12,-0.56 2.12,-1.32 1,-0.8 1.72,-1.64 0.72,-0.84 0.72,-1.48 0,-0.44 -0.28,-0.68 -0.28,-0.28 -0.8,-0.4 -0.48,-0.16 -1.08,-0.2 -0.6,-0.04 -1.24,-0.04 -0.44,0 -0.92,0.04 -0.44,0 -0.8,0 z"
         style="font-style:normal;font-variant:normal;font-weight:normal;font-stretch:normal;font-family:Bangers;-inkscape-font-specification:Bangers;fill:#ffffff;fill-opacity:1;stroke:#000000;stroke-width:0.06806232;stroke-miterlimit:4;stroke-dasharray:none;stroke-opacity:1"
         id="path964"
         inkscape:connector-curvature="0" />
      <path
         d="m 428.60836,69.483405 5.24,-28.44 12.64,-1.08 q -0.28,0.88 -0.48,1.8 -0.2,0.76 -0.4,1.6 -0.16,0.8 -0.28,1.44 -0.4,0.04 -1.16,0.08 -0.72,0 -1.56,0.04 -0.84,0 -1.72,0 -0.84,0 -1.48,0 l -1.4,7.16 q 1.24,-0.08 2.32,-0.12 0.88,-0.04 1.8,-0.04 0.92,0 1.36,-0.04 -0.16,1.12 -0.32,2.2 -0.12,1.08 -0.32,2.2 -0.4,0.04 -1.32,0.08 -0.88,0 -1.8,0.04 -1.04,0.04 -2.28,0.08 l -1.36,7.36 5.84,-0.92 -0.4,4.56 z"
         style="font-style:normal;font-variant:normal;font-weight:normal;font-stretch:normal;font-family:Bangers;-inkscape-font-specification:Bangers;fill:#ffffff;fill-opacity:1;stroke:#000000;stroke-width:0.06806232;stroke-miterlimit:4;stroke-dasharray:none;stroke-opacity:1"
         id="path966"
         inkscape:connector-curvature="0" />
      <path
         d="m 449.65274,69.483405 q 1.2,-5.4 2.28,-10.56 0.44,-2.16 0.92,-4.56 0.48,-2.4 0.92,-4.72 0.44,-2.32 0.84,-4.48 0.4,-2.16 0.68,-3.96 1.16,-0.36 2.28,-0.6 1.12,-0.28 2.28,-0.48 1.2,-0.2 2.24,-0.2 1.8,0 3,0.6 1.24,0.6 2,1.64 0.76,1 1.08,2.36 0.32,1.36 0.32,2.92 0,2.24 -0.84,4.32 -0.8,2.08 -2.2,3.72 -1.36,1.6 -3.16,2.56 -1.76,0.96 -3.68,0.96 h -0.44 q -0.32,1.36 -0.6,2.96 -0.28,1.6 -0.48,2.96 -0.28,1.6 -0.52,3.2 z m 11.16,-24.72 q -0.44,2.64 -0.88,5 -0.44,2.36 -0.96,5.04 0.64,-0.16 1.32,-0.72 0.72,-0.6 1.32,-1.52 0.6,-0.96 0.96,-2.2 0.36,-1.24 0.36,-2.6 0,-1.48 -0.68,-2.24 -0.64,-0.76 -1.44,-0.76 z"
         style="font-style:normal;font-variant:normal;font-weight:normal;font-stretch:normal;font-family:Bangers;-inkscape-font-specification:Bangers;fill:#ffffff;fill-opacity:1;stroke:#000000;stroke-width:0.06806232;stroke-miterlimit:4;stroke-dasharray:none;stroke-opacity:1"
         id="path968"
         inkscape:connector-curvature="0" />
      <path
         d="m 481.56899,61.643405 q -0.56,2.28 -1.6,3.88 -1,1.6 -2.4,2.64 -1.36,1.04 -2.92,1.52 -1.56,0.48 -3.12,0.48 -0.92,0 -1.88,-0.32 -0.96,-0.28 -1.72,-0.88 -0.76,-0.6 -1.28,-1.52 -0.48,-0.92 -0.48,-2.16 0,-0.16 0,-0.32 0,-0.16 0.04,-0.32 0.16,-1.64 0.52,-3.96 0.36,-2.32 0.76,-4.84 0.4,-2.52 0.88,-5.04 0.48,-2.56 0.84,-4.64 0.4,-2.08 0.68,-3.44 0.28,-1.4 0.36,-1.72 0.84,-0.08 2,-0.2 1.16,-0.12 2.16,-0.2 1.24,-0.12 2.44,-0.24 -1.04,4.84 -1.84,8.76 -0.36,1.68 -0.72,3.36 -0.32,1.68 -0.64,3.08 -0.28,1.4 -0.52,2.44 -0.2,1 -0.36,1.64 -0.12,0.64 -0.32,1.64 -0.16,0.96 -0.16,1.76 0,0.64 0.32,1.08 0.32,0.4 0.8,0.4 0.68,0 1.12,-0.52 0.44,-0.56 0.72,-1.32 0.32,-0.76 0.44,-1.52 0.16,-0.8 0.28,-1.24 0.24,-1.16 0.52,-2.56 0.32,-1.44 0.6,-2.96 0.32,-1.56 0.6,-3.16 0.32,-1.6 0.6,-3.12 0.68,-3.52 1.32,-7.28 l 6.08,-0.4 q 0,0 -0.2,1.04 -0.2,1.04 -0.52,2.76 -0.32,1.72 -0.72,3.92 -0.36,2.2 -0.84,4.6 -0.48,2.36 -0.96,4.68 -0.44,2.28 -0.88,4.2 z"
         style="font-style:normal;font-variant:normal;font-weight:normal;font-stretch:normal;font-family:Bangers;-inkscape-font-specification:Bangers;fill:#ffffff;fill-opacity:1;stroke:#000000;stroke-width:0.06806232;stroke-miterlimit:4;stroke-dasharray:none;stroke-opacity:1"
         id="path970"
         inkscape:connector-curvature="0" />
      <path
         d="m 498.96586,67.843405 q -0.36,0 -1.52,0.04 -1.16,0.04 -2.76,0.12 -1.56,0.08 -3.4,0.2 -1.84,0.12 -3.6,0.28 -1.76,0.12 -3.28,0.28 -1.48,0.16 -2.36,0.32 l 0.04,-5.84 11.36,-15.48 q -0.68,0 -1.92,0.16 -1.24,0.12 -2.52,0.28 -1.24,0.16 -2.16,0.32 l -0.96,0.08 0.76,-6.28 16.36,-1.16 -1.04,5.52 -10.92,15.52 q 0.8,0 2.12,-0.08 1.36,-0.08 2.8,-0.16 1.44,-0.08 3.12,-0.2 z"
         style="font-style:normal;font-variant:normal;font-weight:normal;font-stretch:normal;font-family:Bangers;-inkscape-font-specification:Bangers;fill:#ffffff;fill-opacity:1;stroke:#000000;stroke-width:0.06806232;stroke-miterlimit:4;stroke-dasharray:none;stroke-opacity:1"
         id="path972"
         inkscape:connector-curvature="0" />
      <path
         d="m 516.23149,67.843405 q -0.36,0 -1.52,0.04 -1.16,0.04 -2.76,0.12 -1.56,0.08 -3.4,0.2 -1.84,0.12 -3.6,0.28 -1.76,0.12 -3.28,0.28 -1.48,0.16 -2.36,0.32 l 0.04,-5.84 11.36,-15.48 q -0.68,0 -1.92,0.16 -1.24,0.12 -2.52,0.28 -1.24,0.16 -2.16,0.32 l -0.96,0.08 0.76,-6.28 16.36,-1.16 -1.04,5.52 -10.92,15.52 q 0.8,0 2.12,-0.08 1.36,-0.08 2.8,-0.16 1.44,-0.08 3.12,-0.2 z"
         style="font-style:normal;font-variant:normal;font-weight:normal;font-stretch:normal;font-family:Bangers;-inkscape-font-specification:Bangers;fill:#ffffff;fill-opacity:1;stroke:#000000;stroke-width:0.06806232;stroke-miterlimit:4;stroke-dasharray:none;stroke-opacity:1"
         id="path974"
         inkscape:connector-curvature="0" />
      <path
         d="m 527.29711,68.163405 q -1.24,0 -2.64,0.08 -1.36,0.08 -2.76,0.24 -1.4,0.16 -2.76,0.44 -1.32,0.24 -2.4,0.6 0.24,-1.8 0.56,-4 0.32,-2.2 0.72,-4.56 0.44,-2.36 0.84,-4.76 0.44,-2.4 0.88,-4.6 1,-5.24 2.12,-10.68 l 7,-0.92 q -1.08,4.64 -2.08,9.04 -0.44,1.88 -0.88,3.92 -0.44,2 -0.84,3.92 -0.4,1.92 -0.72,3.72 -0.32,1.8 -0.52,3.2 1,-0.08 2.12,-0.08 1.16,-0.04 2.04,-0.04 0.04,0.76 0.12,1.52 0.08,0.72 0.16,1.32 0.12,0.6 0.16,1.08 0.08,0.44 0.12,0.6 -0.32,0 -0.64,0 -0.28,-0.04 -0.6,-0.04 z"
         style="font-style:normal;font-variant:normal;font-weight:normal;font-stretch:normal;font-family:Bangers;-inkscape-font-specification:Bangers;fill:#ffffff;fill-opacity:1;stroke:#000000;stroke-width:0.06806232;stroke-miterlimit:4;stroke-dasharray:none;stroke-opacity:1"
         id="path976"
         inkscape:connector-curvature="0" />
      <path
         d="m 528.68649,69.483405 5.24,-28.44 12.64,-1.08 q -0.28,0.88 -0.48,1.8 -0.2,0.76 -0.4,1.6 -0.16,0.8 -0.28,1.44 -0.4,0.04 -1.16,0.08 -0.72,0 -1.56,0.04 -0.84,0 -1.72,0 -0.84,0 -1.48,0 l -1.4,7.16 q 1.24,-0.08 2.32,-0.12 0.88,-0.04 1.8,-0.04 0.92,0 1.36,-0.04 -0.16,1.12 -0.32,2.2 -0.12,1.08 -0.32,2.2 -0.4,0.04 -1.32,0.08 -0.88,0 -1.8,0.04 -1.04,0.04 -2.28,0.08 l -1.36,7.36 5.84,-0.92 -0.4,4.56 z"
         style="font-style:normal;font-variant:normal;font-weight:normal;font-stretch:normal;font-family:Bangers;-inkscape-font-specification:Bangers;fill:#ffffff;fill-opacity:1;stroke:#000000;stroke-width:0.06806232;stroke-miterlimit:4;stroke-dasharray:none;stroke-opacity:1"
         id="path978"
         inkscape:connector-curvature="0" />
      <path
         d="m 559.75836,59.563405 q 0,2.24 -0.88,4.08 -0.84,1.8 -2.32,3.12 -1.44,1.32 -3.44,2.04 -1.96,0.72 -4.24,0.72 -1.6,0 -3.2,-0.84 -1.6,-0.88 -3.08,-2.76 l 2.96,-5.8 q 0.28,0.52 0.84,1.08 0.56,0.52 1.24,0.92 0.72,0.4 1.4,0.68 0.72,0.24 1.28,0.24 0.48,0 1,-0.16 0.52,-0.16 0.96,-0.48 0.44,-0.32 0.68,-0.72 0.28,-0.44 0.28,-1 0,-0.96 -0.64,-1.76 -0.6,-0.84 -1.52,-1.56 -0.92,-0.76 -2,-1.52 -1.08,-0.76 -2,-1.6 -0.88,-0.84 -1.52,-1.88 -0.64,-1.04 -0.64,-2.32 0,-2.08 1.24,-3.88 1.24,-1.8 3.08,-3.08 1.88,-1.32 4.08,-2.08 2.2,-0.76 4.16,-0.76 1.08,0 2.04,0.28 0.96,0.24 1.64,0.84 0.72,0.56 1.12,1.44 0.44,0.88 0.44,2.2 0,0.56 -0.12,1.12 -0.08,0.56 -0.16,1.2 l -5.8,1.68 q 0.08,-0.32 0.12,-0.64 0.08,-0.32 0.08,-0.64 0,-1.2 -0.44,-1.72 -0.4,-0.56 -1.08,-0.56 -0.32,0 -0.8,0.24 -0.44,0.24 -0.92,0.64 -0.44,0.36 -0.76,0.88 -0.32,0.52 -0.32,1.12 0,0.96 0.52,1.6 0.56,0.64 1.36,1.2 0.8,0.56 1.72,1.16 0.96,0.56 1.76,1.48 0.8,0.92 1.32,2.32 0.56,1.36 0.56,3.48 z"
         style="font-style:normal;font-variant:normal;font-weight:normal;font-stretch:normal;font-family:Bangers;-inkscape-font-specification:Bangers;fill:#ffffff;fill-opacity:1;stroke:#000000;stroke-width:0.06806232;stroke-miterlimit:4;stroke-dasharray:none;stroke-opacity:1"
         id="path980"
         inkscape:connector-curvature="0" />
      <path
         d="m 567.30586,59.963405 q -1.16,0 -2.32,0.08 -1.16,0.08 -2.32,0.16 1.24,-4.92 2.4,-9.8 1.2,-4.88 2.48,-9.8 0.76,-0.12 1.72,-0.24 1,-0.12 2,-0.28 1,-0.16 1.92,-0.28 0.96,-0.12 1.6,-0.24 -2.16,5.04 -3.96,10.16 -1.76,5.08 -3.52,10.24 z m 0.4,6.28 q 0,0.76 -0.36,1.52 -0.32,0.76 -0.96,1.36 -0.64,0.56 -1.6,0.88 -0.96,0.36 -2.2,0.36 -0.84,0 -1.52,-0.32 -0.68,-0.32 -1.12,-0.84 -0.4,-0.56 -0.64,-1.24 -0.24,-0.68 -0.24,-1.36 0,-0.76 0.24,-1.44 0.24,-0.72 0.72,-1.24 0.52,-0.56 1.24,-0.92 0.76,-0.36 1.8,-0.36 2.32,0 3.48,1.12 1.16,1.08 1.16,2.48 z"
         style="font-style:normal;font-variant:normal;font-weight:normal;font-stretch:normal;font-family:Bangers;-inkscape-font-specification:Bangers;fill:#ffffff;fill-opacity:1;stroke:#000000;stroke-width:0.06806232;stroke-miterlimit:4;stroke-dasharray:none;stroke-opacity:1"
         id="path982"
         inkscape:connector-curvature="0" />
    </g>
  </g>
</svg>
